<?xml version="1.0" encoding="UTF-8"?><svg id="Layer_1" xmlns="http://www.w3.org/2000/svg" viewBox="0 0 256 256"><defs><style>.cls-1{stroke-width:0px;}</style></defs><path class="cls-1" d="m128,38.71c29.08,0,32.53.11,44.01.63,10.62.48,16.39,2.26,20.22,3.75,5.08,1.98,8.71,4.34,12.52,8.15,3.81,3.81,6.17,7.44,8.15,12.52,1.49,3.84,3.27,9.61,3.75,20.22.52,11.49.63,14.93.63,44.01s-.11,32.53-.63,44.01c-.48,10.62-2.26,16.39-3.75,20.22-1.98,5.08-4.34,8.71-8.15,12.52-3.81,3.81-7.44,6.17-12.52,8.15-3.84,1.49-9.61,3.27-20.22,3.75-11.48.52-14.93.63-44.01.63s-32.53-.11-44.01-.63c-10.62-.48-16.39-2.26-20.22-3.75-5.08-1.98-8.71-4.34-12.52-8.15-3.81-3.81-6.17-7.44-8.15-12.52-1.49-3.84-3.27-9.61-3.75-20.22-.52-11.49-.63-14.93-.63-44.01s.11-32.53.63-44.01c.48-10.62,2.26-16.39,3.75-20.22,1.98-5.08,4.34-8.71,8.15-12.52,3.81-3.81,7.44-6.17,12.52-8.15,3.84-1.49,9.6-3.27,20.22-3.75,11.49-.52,14.93-.63,44.01-.63m0-19.62c-29.58,0-33.29.13-44.91.66-11.59.53-19.51,2.37-26.44,5.06-7.16,2.78-13.24,6.51-19.29,12.56-6.05,6.05-9.78,12.13-12.56,19.29-2.69,6.93-4.53,14.85-5.06,26.44-.53,11.62-.65,15.33-.65,44.91s.12,33.29.65,44.91c.53,11.59,2.37,19.51,5.06,26.44,2.78,7.16,6.51,13.24,12.56,19.29,6.05,6.05,12.13,9.78,19.29,12.56,6.93,2.69,14.85,4.53,26.44,5.06,11.62.53,15.33.65,44.91.65s33.29-.12,44.91-.65c11.59-.53,19.51-2.37,26.44-5.06,7.16-2.78,13.24-6.51,19.29-12.56,6.05-6.05,9.78-12.13,12.56-19.29,2.69-6.93,4.53-14.85,5.06-26.44.53-11.62.66-15.33.66-44.91s-.13-33.29-.66-44.91c-.53-11.59-2.37-19.51-5.06-26.44-2.78-7.16-6.51-13.24-12.56-19.29-6.05-6.05-12.13-9.78-19.29-12.56-6.93-2.69-14.85-4.53-26.44-5.06-11.62-.53-15.33-.66-44.91-.66Zm0,52.99c-30.89,0-55.93,25.04-55.93,55.93s25.04,55.93,55.93,55.93,55.93-25.04,55.93-55.93-25.04-55.93-55.93-55.93Zm0,92.24c-20.05,0-36.31-16.25-36.31-36.31s16.25-36.31,36.31-36.31,36.31,16.25,36.31,36.31-16.25,36.31-36.31,36.31Zm71.21-94.45c0,7.22-5.85,13.07-13.07,13.07s-13.07-5.85-13.07-13.07,5.85-13.07,13.07-13.07,13.07,5.85,13.07,13.07Z"/></svg>